<svg xmlns="http://www.w3.org/2000/svg" viewBox="0 0 1284 802.56"><defs><style>.a,.c,.q,.r{fill:#fff;}.a,.e{stroke:#999;}.a,.b,.c,.d,.e,.g,.h,.i,.j,.o,.p,.q{stroke-miterlimit:10;}.a,.d,.e{stroke-width:3px;}.b,.f,.p{fill:#d3d8e4;}.b,.c,.p{stroke:gray;}.b,.c,.h,.i,.j,.q{stroke-width:2px;}.d,.e,.g,.i,.m{fill:none;}.d,.g,.i,.o,.q{stroke:#ccc;}.g,.o{stroke-width:30px;}.h{stroke:#fff;}.j,.n{fill:#bdccd4;}.j{stroke:#bdccd4;}.k{fill:#f9def2;}.l{fill:#3fa9f5;}.o{fill:#ccc;}.r{font-size:28px;font-family:Source Han Sans TW;}</style></defs><title>background-chinese</title><rect class="a" x="1.5" y="1.5" width="1281" height="799.56"/><path class="b" d="M1015,586.81c0,22.59-16.91,40.19-37.6,40.19H275.61C254.92,627,238,609.4,238,586.81V175.12c0-22.59,16.92-40.12,37.61-40.12H977.4c20.69,0,37.6,17.54,37.6,40.12V586.81Z" transform="translate(2.96 1.45)"/><path class="c" d="M995,579.7c0,6.59-4.3,12.3-10.82,12.3H273.35A12.66,12.66,0,0,1,261,579.7V171.47A12.81,12.81,0,0,1,273.35,159H984.18c6.52,0,10.82,5.88,10.82,12.47V579.7Z" transform="translate(2.96 1.45)"/><path class="d" d="M593.27,588.07" transform="translate(2.96 1.45)"/><path class="d" d="M292.29,534.15" transform="translate(2.96 1.45)"/><path class="d" d="M774.78,339.34" transform="translate(2.96 1.45)"/><path class="d" d="M808.79,372.87" transform="translate(2.96 1.45)"/><line class="e" x1="461.96" y1="531.95" x2="791.96" y2="531.95"/><rect class="f" x="508.96" y="628.45" width="270" height="19"/><rect class="f" x="436.96" y="646.45" width="415" height="14"/><line class="g" x1="454.06" y1="432.03" x2="532.28" y2="329.17"/><line class="g" x1="579.24" y1="375.46" x2="643.45" y2="283.4"/><line class="g" x1="516.26" y1="336.23" x2="582.28" y2="373.64"/><line class="g" x1="626.19" y1="280.7" x2="734.92" y2="345.33"/><line class="g" x1="717.6" y1="345.86" x2="789.64" y2="253.69"/><rect class="c" x="566.96" y="294.45" width="126" height="152"/><ellipse class="h" cx="613.55" cy="329.28" rx="3.55" ry="3.63"/><ellipse class="h" cx="647.01" cy="329.28" rx="3.55" ry="3.63"/><path class="i" d="M616.16,334.69c0,3.21,5.9,5.81,13.19,5.81" transform="translate(2.96 1.45)"/><path class="i" d="M640.3,334.69c0,3.21-5.9,5.81-13.19,5.81" transform="translate(2.96 1.45)"/><path class="j" d="M678,372.89c0,1-1.43,2.11-3.52,2.11H579.21c-2.09,0-4.21-1.07-4.21-2.11v0c0-1,2.12-.85,4.21-0.85h95.26c2.09,0,3.52-.19,3.52.85v0Z" transform="translate(2.96 1.45)"/><path class="j" d="M678,383.53c0,1-1.43,2.47-3.52,2.47H579.21c-2.09,0-4.21-1.42-4.21-2.47v0c0-1,2.12-1.5,4.21-1.5h95.26c2.09,0,3.52.46,3.52,1.5v0Z" transform="translate(2.96 1.45)"/><path class="j" d="M678,394.18a3.54,3.54,0,0,1-3.52,2.82H579.21c-2.09,0-4.21-1.78-4.21-2.82v0c0-1,2.12-1.14,4.21-1.14h95.26c2.09,0,3.52.1,3.52,1.14v0Z" transform="translate(2.96 1.45)"/><path class="j" d="M678,404.83c0,1-1.43,2.17-3.52,2.17H579.21c-2.09,0-4.21-1.13-4.21-2.17v0c0-1,2.12-.79,4.21-0.79h95.26c2.09,0,3.52-.25,3.52.79v0Z" transform="translate(2.96 1.45)"/><path class="j" d="M678,415.47c0,1-1.43,2.53-3.52,2.53H579.21c-2.09,0-4.21-1.49-4.21-2.53v0c0-1,2.12-1.43,4.21-1.43h95.26c2.09,0,3.52.39,3.52,1.43v0Z" transform="translate(2.96 1.45)"/><path class="j" d="M678,426.12c0,1-1.43,1.88-3.52,1.88H579.21c-2.09,0-4.21-.84-4.21-1.88v0c0-1,2.12-1.08,4.21-1.08h95.26c2.09,0,3.52,0,3.52,1.08v0Z" transform="translate(2.96 1.45)"/><ellipse class="k" cx="605.69" cy="334.47" rx="4.31" ry="1.04"/><ellipse class="k" cx="653.75" cy="334.47" rx="4.31" ry="1.04"/><rect class="c" x="529.96" y="423.45" width="197" height="92"/><polygon class="l" points="720.96 487.87 720.96 444.45 538.96 444.45 538.96 498.45 710.14 498.45 720.96 487.87"/><polygon class="m" points="724.29 483.49 719.88 488.12 708.8 488.79 709.42 499.12 705.92 502.79 695.7 493.34 714.08 474.04 724.29 483.49"/><polygon class="n" points="720.51 488.12 710.04 499.12 709.42 488.79 720.51 488.12"/><path class="e" d="M371,508a15.69,15.69,0,0,1,16.69,4.4c4.35,5.11,3.4,11.46,3.23,12.42a6.47,6.47,0,0,1,9.06,6.34l89-.6" transform="translate(2.96 1.45)"/><path class="i" d="M352.93,472.36l23.13,0.11A20.39,20.39,0,0,1,390.69,466a18.89,18.89,0,0,1,7-10.4,17.39,17.39,0,0,1,10.61-3.5,16.15,16.15,0,0,1,10.5,3.93,16,16,0,0,1,5,8.7,12.36,12.36,0,0,1,12.41,7.64H456" transform="translate(2.96 1.45)"/><path class="d" d="M482.35,311.33a17.51,17.51,0,0,0-12.53,18.2,18,18,0,0,0-6.7,2.06,18.26,18.26,0,0,0-7,6.87l-48.42-.17" transform="translate(2.96 1.45)"/><path class="d" d="M780.67,338.74a32.86,32.86,0,0,1,18.9,9.45,33.28,33.28,0,0,1,9.2,22.61,32.73,32.73,0,0,1,19,3.58,32.16,32.16,0,0,1,10.6,9.2l49.82,0.13" transform="translate(2.96 1.45)"/><polygon class="o" points="774.19 243.78 803.87 263.95 802.93 232.23 774.19 243.78"/><line class="c" x1="530.21" y1="423.52" x2="479.42" y2="470.04"/><line class="c" x1="727.3" y1="423.52" x2="771" y2="470.53"/><path class="f" d="M512.09,566" transform="translate(2.96 1.45)"/><path class="p" d="M505.17,626.71c0,2.87,0,5.85,0,8.28,0,2.92,0,6.35,0,9.28H433.57L433.7,659l415.1-.25-0.48-14.07L776,643.59l0.07-16.8Z" transform="translate(2.96 1.45)"/><path class="p" d="M743.45,566.85" transform="translate(2.96 1.45)"/><line class="q" x1="529.96" y1="515.45" x2="727.96" y2="515.45"/><text class="r" transform="translate(546.42 480.75)">意見回饋表單</text></svg>