<svg xmlns="http://www.w3.org/2000/svg" viewBox="0 0 1284 802.56"><defs><style>.a,.c,.m,.r{fill:#fff;}.a,.e{stroke:#999;}.a,.b,.c,.d,.e,.g,.h,.i,.j,.p,.q,.r{stroke-miterlimit:10;}.a,.d,.e{stroke-width:3px;}.b,.f,.q{fill:#d3d8e4;}.b,.c,.q{stroke:gray;}.b,.c,.h,.i,.j,.r{stroke-width:2px;}.d,.e,.g,.i,.n{fill:none;}.d,.g,.i,.p,.r{stroke:#ccc;}.g,.p{stroke-width:30px;}.h{stroke:#fff;}.j,.o{fill:#bdccd4;}.j{stroke:#bdccd4;}.k{fill:#f9def2;}.l{fill:#3fa9f5;}.p{fill:#ccc;}</style></defs><title>background</title><rect class="a" x="1.5" y="1.5" width="1281" height="799.56"/><path class="b" d="M1032,586.81c0,22.59-16.91,40.19-37.6,40.19H292.61C271.92,627,255,609.4,255,586.81V175.12c0-22.59,16.92-40.12,37.61-40.12H994.4c20.69,0,37.6,17.54,37.6,40.12V586.81Z" transform="translate(1.5 0.06)"/><path class="c" d="M1012,579.7c0,6.59-4.3,12.3-10.82,12.3H290.35A12.66,12.66,0,0,1,278,579.7V171.47A12.81,12.81,0,0,1,290.35,159h710.83c6.52,0,10.82,5.88,10.82,12.47V579.7Z" transform="translate(1.5 0.06)"/><path class="d" d="M610.27,588.07" transform="translate(1.5 0.06)"/><path class="d" d="M791.78,339.34" transform="translate(1.5 0.06)"/><path class="d" d="M825.79,372.87" transform="translate(1.5 0.06)"/><line class="e" x1="477.5" y1="530.56" x2="807.5" y2="530.56"/><rect class="f" x="524.5" y="627.06" width="270" height="19"/><rect class="f" x="452.5" y="645.06" width="415" height="14"/><line class="g" x1="469.6" y1="430.64" x2="547.82" y2="327.78"/><line class="g" x1="594.78" y1="374.07" x2="658.99" y2="282.01"/><line class="g" x1="531.8" y1="334.83" x2="597.82" y2="372.24"/><line class="g" x1="641.73" y1="279.31" x2="750.45" y2="343.94"/><line class="g" x1="733.14" y1="344.46" x2="805.18" y2="252.29"/><rect class="c" x="582.5" y="293.06" width="126" height="152"/><ellipse class="h" cx="629.09" cy="327.89" rx="3.55" ry="3.63"/><ellipse class="h" cx="662.55" cy="327.89" rx="3.55" ry="3.63"/><path class="i" d="M633.16,334.69c0,3.21,5.9,5.81,13.19,5.81" transform="translate(1.5 0.06)"/><path class="i" d="M657.3,334.69c0,3.21-5.9,5.81-13.19,5.81" transform="translate(1.5 0.06)"/><path class="j" d="M695,372.89c0,1-1.43,2.11-3.52,2.11H596.21c-2.09,0-4.21-1.07-4.21-2.11v0c0-1,2.12-.85,4.21-0.85h95.26c2.09,0,3.52-.19,3.52.85v0Z" transform="translate(1.5 0.06)"/><path class="j" d="M695,383.53c0,1-1.43,2.47-3.52,2.47H596.21c-2.09,0-4.21-1.42-4.21-2.47v0c0-1,2.12-1.5,4.21-1.5h95.26c2.09,0,3.52.46,3.52,1.5v0Z" transform="translate(1.5 0.06)"/><path class="j" d="M695,394.18a3.54,3.54,0,0,1-3.52,2.82H596.21c-2.09,0-4.21-1.78-4.21-2.82v0c0-1,2.12-1.14,4.21-1.14h95.26c2.09,0,3.52.1,3.52,1.14v0Z" transform="translate(1.5 0.06)"/><path class="j" d="M695,404.83c0,1-1.43,2.17-3.52,2.17H596.21c-2.09,0-4.21-1.13-4.21-2.17v0c0-1,2.12-.79,4.21-0.79h95.26c2.09,0,3.52-.25,3.52.79v0Z" transform="translate(1.5 0.06)"/><path class="j" d="M695,415.47c0,1-1.43,2.53-3.52,2.53H596.21c-2.09,0-4.21-1.49-4.21-2.53v0c0-1,2.12-1.43,4.21-1.43h95.26c2.09,0,3.52.39,3.52,1.43v0Z" transform="translate(1.5 0.06)"/><path class="j" d="M695,426.12c0,1-1.43,1.88-3.52,1.88H596.21c-2.09,0-4.21-.84-4.21-1.88v0c0-1,2.12-1.08,4.21-1.08h95.26c2.09,0,3.52,0,3.52,1.08v0Z" transform="translate(1.5 0.06)"/><ellipse class="k" cx="621.23" cy="333.07" rx="4.31" ry="1.04"/><ellipse class="k" cx="669.29" cy="333.07" rx="4.31" ry="1.04"/><rect class="c" x="545.5" y="422.06" width="197" height="92"/><polygon class="l" points="736.5 486.47 736.5 443.06 554.5 443.06 554.5 497.06 725.68 497.06 736.5 486.47"/><path class="m" d="M575.41,456.12l-0.14,2.66q-4.74-.21-10.75-0.21,0.21,3,.21,8.16,4.19,0,8.14-.14v2.58q-3.81-.14-8.14-0.14,0,7,.2,10.3h-3.24q0.25-5.52.25-12.19,0-6.27-.25-11h13.72Z" transform="translate(1.5 0.06)"/><path class="m" d="M594,476.63l-0.11,2.69H579.54q0.25-5.52.25-12.19,0-6.27-.25-11H593l-0.14,2.66q-4.9-.21-10.39-0.21,0.11,2.76.11,7.47,4.74,0,8.45-.21v2.66q-4-.16-8.45-0.16,0,4.58.16,8.59Q588.66,476.89,594,476.63Z" transform="translate(1.5 0.06)"/><path class="m" d="M613,476.63l-0.11,2.69H598.54q0.25-5.52.25-12.19,0-6.27-.25-11H612l-0.14,2.66q-4.9-.21-10.39-0.21,0.11,2.76.11,7.47,4.74,0,8.45-.21v2.66q-4-.16-8.45-0.16,0,4.58.16,8.59Q607.66,476.89,613,476.63Z" transform="translate(1.5 0.06)"/><path class="m" d="M635.87,466.88a13.3,13.3,0,0,1-3.23,8.88,11.07,11.07,0,0,1-8.92,3.81q-1.85,0-6.18-.25,0.27-5.52.27-12.19,0-6.27-.27-11h2q0.71,0,2.17-.05l1.92-.05q6.29,0,9.28,3.09A10.73,10.73,0,0,1,635.87,466.88Zm-3.1.8a9.23,9.23,0,0,0-2.52-6.61q-2.52-2.66-7.8-2.66a16,16,0,0,0-2,.18q0.14,4.15.14,8.54,0,4.81.2,9.77a14,14,0,0,0,2.74.29q4.7,0,7-2.79A10.24,10.24,0,0,0,632.77,467.68Z" transform="translate(1.5 0.06)"/><path class="m" d="M657.26,472.24a6,6,0,0,1-2.94,5.35,14.53,14.53,0,0,1-7.88,1.84q-1.39,0-5.45-.11,0.25-5.52.25-12.19,0-6.27-.25-11h2.14l2.51-.05q1.89-.05,2.74-0.05,7.41,0,7.41,5.11a5.15,5.15,0,0,1-3.51,5.31v0.18Q657.26,467.5,657.26,472.24ZM652.8,462q0-3.69-5-3.69a24.7,24.7,0,0,0-4,.27q0.14,1.28.14,7.25,0.87,0,1.92,0a12.17,12.17,0,0,0,5.13-.8A3.14,3.14,0,0,0,652.8,462Zm1.44,10.53q0-4.38-7.77-4.38-1.43,0-2.51.11,0,4.76.2,8.5a12,12,0,0,0,2.39.16q4.29,0,6.09-1.12A3.57,3.57,0,0,0,654.25,472.55Z" transform="translate(1.5 0.06)"/><path class="m" d="M681.32,479.32h-3.76q0-1.19-2.25-7.5H665q-2.21,6.22-2.21,7.5h-3.6q0-.66,4.6-11.4t4.6-11.81h4.13q0,1.05,4.38,11.64T681.32,479.32Zm-6.83-9.84Q670.3,459,670.3,458.36h-0.2q0,0.55-4.33,11.12h8.71Z" transform="translate(1.5 0.06)"/><path class="m" d="M700.58,476.48l-0.23,2.66a16.52,16.52,0,0,1-4.78.66q-6.13,0-9.21-3.36a11.69,11.69,0,0,1-3.08-8.21,12.39,12.39,0,0,1,3.44-8.76,12.05,12.05,0,0,1,9.25-3.68,13,13,0,0,1,3.39.48l-0.5,2.83a12.4,12.4,0,0,0-3.65-.64,8,8,0,0,0-6.54,2.67,9.88,9.88,0,0,0-2.23,6.54,9.68,9.68,0,0,0,2.57,6.75,9.11,9.11,0,0,0,7.09,2.82A17.64,17.64,0,0,0,700.58,476.48Z" transform="translate(1.5 0.06)"/><path class="m" d="M722.77,479.32h-3.9a25.37,25.37,0,0,0-2-3.1,62.14,62.14,0,0,0-4.29-5.56q-2.64-3-3.9-3h-0.55q0,4.17.18,11.64h-3.35q0.27-5.52.27-12.19,0-6.27-.27-11h3.35q-0.18,4.74-.18,9.62h0.41q1,0,4.89-4.54t3.91-5.08H721q0,0.53-3.8,4.41a52,52,0,0,1-5.66,5.21v0.18q2,0.78,6.83,7.08Q722.77,478.78,722.77,479.32Z" transform="translate(1.5 0.06)"/><polygon class="n" points="739.83 482.1 735.42 486.73 724.34 487.39 724.96 497.72 721.46 501.4 711.24 491.95 729.62 472.64 739.83 482.1"/><polygon class="o" points="736.04 486.73 725.58 497.72 724.96 487.39 736.04 486.73"/><path class="e" d="M388,508a15.69,15.69,0,0,1,16.69,4.4c4.35,5.11,3.4,11.46,3.23,12.42a6.47,6.47,0,0,1,9.06,6.34l89-.6" transform="translate(1.5 0.06)"/><path class="i" d="M369.93,472.36l23.13,0.11A20.39,20.39,0,0,1,407.69,466a18.89,18.89,0,0,1,7-10.4,17.39,17.39,0,0,1,10.61-3.5,16.15,16.15,0,0,1,10.5,3.93,16,16,0,0,1,5,8.7,12.36,12.36,0,0,1,12.41,7.64H473" transform="translate(1.5 0.06)"/><path class="d" d="M499.35,311.33a17.51,17.51,0,0,0-12.53,18.2,18,18,0,0,0-6.7,2.06,18.26,18.26,0,0,0-7,6.87l-48.42-.17" transform="translate(1.5 0.06)"/><path class="d" d="M797.67,338.74a32.86,32.86,0,0,1,18.9,9.45,33.28,33.28,0,0,1,9.2,22.61,32.73,32.73,0,0,1,19,3.58,32.16,32.16,0,0,1,10.6,9.2l49.82,0.13" transform="translate(1.5 0.06)"/><polygon class="p" points="789.73 242.39 819.41 262.56 818.47 230.83 789.73 242.39"/><line class="c" x1="545.75" y1="422.12" x2="494.96" y2="468.65"/><line class="c" x1="742.84" y1="422.12" x2="786.54" y2="469.13"/><path class="f" d="M529.09,566" transform="translate(1.5 0.06)"/><path class="q" d="M522.17,626.71c0,2.87,0,5.85,0,8.28,0,2.92,0,6.35,0,9.28H450.57L450.7,659l415.1-.25-0.48-14.07L793,643.59l0.07-16.8Z" transform="translate(1.5 0.06)"/><path class="q" d="M760.45,566.85" transform="translate(1.5 0.06)"/><line class="r" x1="545.5" y1="514.06" x2="743.5" y2="514.06"/></svg>